<?xml version="1.0" standalone="no"?>
<!DOCTYPE svg PUBLIC "-//W3C//DTD SVG 20010904//EN"
 "http://www.w3.org/TR/2001/REC-SVG-20010904/DTD/svg10.dtd">
<svg version="1.0" xmlns="http://www.w3.org/2000/svg"
 width="160.000000pt" height="160.000000pt" viewBox="0 0 160.000000 160.000000"
 preserveAspectRatio="xMidYMid meet">

<g transform="translate(0.000000,160.000000) scale(0.100000,-0.100000)"
fill="#000000" stroke="none">
<path d="M620 1585 c-81 -18 -247 -99 -322 -160 -69 -54 -168 -176 -207 -254
-234 -468 14 -1019 519 -1152 36 -9 68 -15 73 -12 4 2 7 125 7 274 l0 269 -95
0 -95 0 0 110 0 109 93 3 92 3 6 130 c6 144 19 187 72 244 18 18 50 42 72 51
51 23 157 34 240 25 l65 -7 0 -94 0 -94 -62 0 c-96 0 -137 -15 -154 -55 -20
-50 -19 -191 2 -199 9 -3 58 -6 110 -6 52 0 94 -3 94 -6 0 -6 -18 -133 -26
-181 l-5 -33 -94 0 -95 0 0 -269 c0 -206 3 -270 13 -274 23 -9 151 32 232 73
189 96 329 256 404 460 59 161 55 364 -10 540 -50 135 -163 286 -272 364 -87
62 -218 123 -302 141 -87 18 -268 18 -355 0z"/>
</g>
</svg>
