<?xml version="1.0" standalone="no"?>
<!DOCTYPE svg PUBLIC "-//W3C//DTD SVG 20010904//EN"
 "http://www.w3.org/TR/2001/REC-SVG-20010904/DTD/svg10.dtd">
<svg version="1.0" xmlns="http://www.w3.org/2000/svg"
 width="80.000000pt" height="80.000000pt" viewBox="0 0 80.000000 80.000000"
 preserveAspectRatio="xMidYMid meet">

<g transform="translate(0.000000,80.000000) scale(0.100000,-0.100000)"
fill="#000000" stroke="none">
<path d="M305 786 c-74 -18 -133 -52 -187 -108 -61 -62 -93 -126 -109 -212
-32 -174 62 -350 231 -430 58 -28 75 -31 160 -31 85 0 102 3 160 31 87 41 162
116 203 201 29 62 32 77 32 163 0 85 -3 102 -31 160 -85 179 -273 272 -459
226z m255 -164 c19 -9 45 -32 57 -51 21 -31 23 -45 23 -170 0 -153 -10 -183
-72 -221 -29 -17 -51 -20 -169 -20 -125 0 -139 2 -170 23 -60 40 -70 73 -67
229 3 153 12 177 79 210 49 26 269 26 319 0z"/>
<path d="M271 597 c-65 -23 -76 -52 -76 -196 0 -106 3 -131 18 -155 31 -46 76
-59 203 -54 95 3 117 6 141 24 39 29 52 74 52 187 1 174 -24 201 -194 204 -69
2 -123 -2 -144 -10z m274 -62 c0 -11 -7 -21 -16 -23 -18 -3 -33 23 -23 39 10
17 39 5 39 -16z m-74 -28 c41 -27 59 -60 59 -107 0 -70 -61 -130 -132 -130
-45 0 -78 19 -105 59 -78 116 62 256 178 178z"/>
<path d="M358 484 c-89 -48 -58 -179 43 -179 116 0 128 167 14 189 -18 3 -41
-1 -57 -10z"/>
</g>
</svg>
