<?xml version="1.0" encoding="UTF-8"?>
<svg version="1.1" xmlns="http://www.w3.org/2000/svg" width="500" height="70">
<path d="M0 0 C-1.33488128 3.59391114 -2.96022723 6.75490696 -5 10 C-7.470392 9.02323153 -9.92655553 8.03222315 -12.359375 6.96484375 C-21.45988727 3.05400269 -29.39737994 1.89593945 -39 5 C-39.66 5.66 -40.32 6.32 -41 7 C-41 7.99 -41 8.98 -41 10 C-37.45136466 11.55487055 -34.22781446 12.40267153 -30.39453125 12.9296875 C-29.32783203 13.08566406 -28.26113281 13.24164062 -27.16210938 13.40234375 C-24.94926173 13.71459397 -22.73572145 14.02197867 -20.52148438 14.32421875 C-4.18433787 16.73799535 -4.18433787 16.73799535 1.5625 22.625 C4.07565565 26.7771702 4.64866989 30.17101304 4 35 C0.55360307 41.63750521 -4.08258942 44.91286997 -10.9375 47.38671875 C-24.09763259 51.29986424 -39.93350644 49.98378144 -52 43.5 C-54.81183874 41.83845893 -57.41013447 39.98864675 -60 38 C-58.6302836 34.00499382 -56.74277578 31.19990508 -54 28 C-51.70886227 29.13732736 -49.43099047 30.29507097 -47.16015625 31.47265625 C-46.13792969 31.99730469 -45.11570313 32.52195313 -44.0625 33.0625 C-43.04285156 33.58972656 -42.02320313 34.11695313 -40.97265625 34.66015625 C-33.20627271 38.16064187 -22.78239619 38.35695259 -14.625 36 C-13.325625 35.505 -13.325625 35.505 -12 35 C-12.10613836 32.54775306 -12.10613836 32.54775306 -13 30 C-16.53015195 28.21107964 -19.92274183 27.59452934 -23.82421875 27.10546875 C-24.93603516 26.95400391 -26.04785156 26.80253906 -27.19335938 26.64648438 C-29.50209079 26.34321334 -31.81200162 26.04877524 -34.12304688 25.76367188 C-41.91729606 24.68101248 -50.32995569 23.22492619 -55.74072266 16.99609375 C-58.24974016 13.01902374 -57.75775676 8.49559893 -57 4 C-54.25829353 -1.87047739 -49.3169509 -4.14707945 -43.46484375 -6.2734375 C-28.66424714 -10.63621241 -12.91105588 -8.40719917 0 0 Z " fill="#E5E4E0" transform="translate(290,13)"/>
<path d="M0 0 C5.27137325 4.82590509 8.48767003 10.35665655 9.21484375 17.44140625 C9.50303533 25.84329927 8.00919428 32.19614558 2.33203125 38.58984375 C-8.08829711 48.14977802 -20.52713732 49.36099178 -34.0546875 49.08984375 C-45.07802055 48.59095634 -53.77880069 44.99272867 -61.58203125 37.26953125 C-66.98641603 31.30284054 -67.58455474 24.84227417 -67.42578125 17.09765625 C-66.61462165 9.76270242 -63.48972312 4.60445911 -57.87109375 -0.09765625 C-41.36253162 -11.7831827 -16.45123844 -11.90669743 0 0 Z M-50.43359375 10.02734375 C-53.01887465 14.40243451 -54.44210214 18.77041562 -53.7890625 23.890625 C-52.03631956 29.71425478 -48.00119734 33.42796037 -43.05859375 36.77734375 C-35.94098199 40.14161683 -27.76955958 40.59386957 -20.19140625 38.5703125 C-14.41635937 36.42317969 -9.23289965 33.14924604 -6.05859375 27.77734375 C-4.3383024 23.3182801 -3.53498996 19.29931762 -4.93359375 14.65234375 C-7.38620216 9.1777714 -12.12938721 5.16188832 -17.48828125 2.62890625 C-29.70047969 -1.41708047 -41.2070742 1.28643049 -50.43359375 10.02734375 Z " fill="#E4E3DD" transform="translate(98.05859375,13.22265625)"/>
<path d="M0 0 C4.59496215 4.81910665 6.21355369 9.48096038 6.6875 16.02734375 C6.39674628 22.21494626 4.01716057 27.05966555 -0.0625 31.625 C-7.6327432 36.25125974 -16.06465342 38.1483851 -24.7890625 36.1484375 C-29.85072217 34.60793238 -32.81143837 32.77154109 -37.4375 29.6875 C-37.7675 34.6375 -38.0975 39.5875 -38.4375 44.6875 C-43.3875 44.6875 -48.3375 44.6875 -53.4375 44.6875 C-53.4375 28.8475 -53.4375 13.0075 -53.4375 -3.3125 C-49.1475 -3.3125 -44.8575 -3.3125 -40.4375 -3.3125 C-39.7775 -1.3325 -39.1175 0.6475 -38.4375 2.6875 C-37.9528125 2.27757812 -37.468125 1.86765625 -36.96875 1.4453125 C-26.5359511 -6.94105277 -11.17990533 -8.57864023 0 0 Z M-38.4375 10.6875 C-39.59387647 15.02391175 -39.67259439 17.74947655 -37.4375 21.6875 C-32.36286112 26.27104479 -27.15046995 25.96442298 -20.61328125 25.90625 C-15.79564549 25.57440793 -12.98614939 24.18452775 -9.5625 20.875 C-8.02207167 17.87972268 -7.96179457 16.017438 -8.4375 12.6875 C-10.6552365 9.2024855 -12.59658184 7.16225526 -16.4375 5.6875 C-19.73988851 5.33253922 -19.73988851 5.33253922 -23.3125 5.375 C-25.10300781 5.34986328 -25.10300781 5.34986328 -26.9296875 5.32421875 C-31.69347626 5.81757327 -35.04755748 7.29755748 -38.4375 10.6875 Z " fill="#E5E4DF" transform="translate(350.4375,25.3125)"/>
<path d="M0 0 C5.59908801 6.04112128 6 9.33217207 6 18 C-7.53 18.33 -21.06 18.66 -35 19 C-26.72704552 24.51530299 -19.6490016 24.94889738 -10 24 C-5.83775834 22.9998391 -1.93817567 21.67074119 2 20 C6 25.625 6 25.625 6 29 C-6.70286091 35.46120827 -21.24615617 37.17372934 -35 33 C-42.74743799 29.99843411 -47.72409987 26.75870026 -51.375 19.125 C-52.45510085 13.72449575 -51.89237663 9.6856003 -49.3125 4.8125 C-37.52153838 -9.52785872 -14.56959631 -11.49709641 0 0 Z M-34.9375 6.5625 C-36.19813035 7.97013476 -36.19813035 7.97013476 -36 10 C-27.09 10 -18.18 10 -9 10 C-11.06954489 5.86091023 -12.50580106 3.94607546 -16.8125 2.3125 C-23.71018421 1.32711654 -29.37107505 2.07344762 -34.9375 6.5625 Z " fill="#E5E5E0" transform="translate(221,27)"/>
<path d="M0 0 C4.28698128 4.07212064 6.13820921 7.84245967 6.3125 13.75 C6.21488308 19.85549449 4.61488276 23.33483104 0.375 27.65625 C-7.12405948 34.03045056 -16.73130259 35.54063675 -26.33984375 35.22265625 C-34.39165351 34.54871623 -43.10850974 33.27300892 -48.79296875 27.03125 C-53.42922923 20.95235264 -54.98425997 16.72700647 -54 9 C-51.6980211 3.02311308 -47.5467565 -0.96101982 -42 -4 C-28.74507834 -9.52288403 -11.73443375 -8.47101134 0 0 Z M-37.875 7.6875 C-39.53768709 11.10524568 -39.6581974 14.32140789 -39 18 C-36.60174689 22.0859127 -34.42828509 23.55985571 -30 25 C-22.28776532 25.79924909 -16.55619306 25.29931222 -10.1875 20.6875 C-8.40881668 18.15989738 -8.18366647 16.06110789 -8 13 C-9.06867816 8.51155173 -11.24449563 6.56473469 -15 4 C-22.9145645 1.36181183 -31.58634377 2.0277094 -37.875 7.6875 Z " fill="#E5E5E0" transform="translate(413,27)"/>
<path d="M0 0 C4.61678517 3.8177262 7.00999931 8.08124333 8 14 C8.22712407 17.98379188 8.18937087 21.94898175 8.125 25.9375 C8.11597656 27.00291016 8.10695312 28.06832031 8.09765625 29.16601562 C8.07423539 31.77744161 8.03836937 34.38875087 8 37 C3.05 37 -1.9 37 -7 37 C-7.01417969 35.32550781 -7.02835938 33.65101562 -7.04296875 31.92578125 C-7.08987204 29.7213267 -7.1381194 27.51690045 -7.1875 25.3125 C-7.19330078 24.20970703 -7.19910156 23.10691406 -7.20507812 21.97070312 C-7.32471635 15.43417344 -7.32471635 15.43417344 -10.34765625 9.79296875 C-14.36815242 7.07513703 -17.56204602 6.53678874 -22.34375 7.4453125 C-25.8878855 8.44641571 -28.20535259 9.11886036 -30.72265625 11.91015625 C-32.66964804 16.61985198 -32.57440426 21.26196731 -32.6875 26.3125 C-32.72166016 27.33923828 -32.75582031 28.36597656 -32.79101562 29.42382812 C-32.87322536 31.94884141 -32.93829627 34.47440241 -33 37 C-37.95 37 -42.9 37 -48 37 C-48 24.46 -48 11.92 -48 -1 C-43.71 -1 -39.42 -1 -35 -1 C-34.34 0.98 -33.68 2.96 -33 5 C-32.50371094 4.59007812 -32.00742188 4.18015625 -31.49609375 3.7578125 C-22.19436799 -3.6200269 -10.83281831 -5.76257064 0 0 Z " fill="#E5E4DF" transform="translate(159,23)"/>
<path d="M0 0 C0.19456705 1.95764383 0.38044247 3.91615321 0.5625 5.875 C0.66691406 6.96554688 0.77132813 8.05609375 0.87890625 9.1796875 C1 12 1 12 0 14 C7.92 14 15.84 14 24 14 C24 16.97 24 19.94 24 23 C16.08 23 8.16 23 0 23 C0.12375 25.578125 0.2475 28.15625 0.375 30.8125 C0.40899902 31.62050049 0.44299805 32.42850098 0.47802734 33.26098633 C0.68367265 36.96958079 0.90155637 38.85233456 3 42 C7.62670147 43.04595491 11.83021024 42.42342414 15.875 40 C16.90625 39.34 17.9375 38.68 19 38 C19.99 38 20.98 38 22 38 C22.99 40.31 23.98 42.62 25 45 C19.00658334 50.95487379 13.02793465 54.0184313 4.5 54.375 C-0.90530458 54.148204 -6.42076232 53.19235203 -10.640625 49.60546875 C-14.27093044 45.48486343 -15.13571027 41.99943763 -15.09765625 36.671875 C-15.09443359 35.87265625 -15.09121094 35.0734375 -15.08789062 34.25 C-15.07951172 33.425 -15.07113281 32.6 -15.0625 31.75 C-15.05798828 30.90953125 -15.05347656 30.0690625 -15.04882812 29.203125 C-15.03707961 27.13538599 -15.01914522 25.06768376 -15 23 C-18.63 23 -22.26 23 -26 23 C-26 20.03 -26 17.06 -26 14 C-22.37 14 -18.74 14 -15 14 C-15 10.37 -15 6.74 -15 3 C-12.87562952 2.49733206 -10.75048274 1.9979439 -8.625 1.5 C-7.44164062 1.2215625 -6.25828125 0.943125 -5.0390625 0.65625 C-2 0 -2 0 0 0 Z " fill="#E2E2DD" transform="translate(446,8)"/>
<path d="M0 0 C4.34161333 2.50943825 7.12110383 5.30470766 9.375 9.8125 C9.94235892 14.46298294 9.8348631 17.90980577 7.6875 22.125 C2.88603886 27.70507646 -1.54339518 30.35307766 -8.921875 31.18359375 C-16.95748027 31.33812462 -22.99979745 30.58368305 -29.625 25.8125 C-33.93276937 21.29459554 -34.98451948 18.22414194 -34.90625 12.12890625 C-34.33593185 7.43170261 -31.55795087 4.69634819 -28.25 1.5625 C-20.10380026 -3.86829983 -8.76093994 -4.13349985 0 0 Z M-11.7097168 3.55664062 C-12.49000244 4.35263672 -13.27028809 5.14863281 -14.07421875 5.96875 C-14.92177734 6.82597656 -15.76933594 7.68320312 -16.64257812 8.56640625 C-17.52365234 9.47261719 -18.40472656 10.37882812 -19.3125 11.3125 C-20.20517578 12.21871094 -21.09785156 13.12492187 -22.01757812 14.05859375 C-24.22689251 16.30335168 -26.42892533 18.55479998 -28.625 20.8125 C-25.51091888 21.14339889 -25.51091888 21.14339889 -23.42578125 18.87109375 C-22.60464844 18.00613281 -21.78351562 17.14117187 -20.9375 16.25 C-17.15257742 12.3374334 -13.29398103 8.68029901 -9.12109375 5.1875 C-7.50206069 3.86322456 -7.50206069 3.86322456 -6.625 1.8125 C-9.69452896 1.49166187 -9.69452896 1.49166187 -11.7097168 3.55664062 Z M-20.625 2.8125 C-20.625 3.4725 -20.625 4.1325 -20.625 4.8125 C-21.49125 5.18375 -21.49125 5.18375 -22.375 5.5625 C-24.9252997 6.97933317 -26.64285701 8.68877537 -28.625 10.8125 C-28.295 11.4725 -27.965 12.1325 -27.625 12.8125 C-26.11910612 11.52770959 -24.62042625 10.23445918 -23.125 8.9375 C-22.2896875 8.21820312 -21.454375 7.49890625 -20.59375 6.7578125 C-19.9440625 6.11585937 -19.294375 5.47390625 -18.625 4.8125 C-18.625 4.1525 -18.625 3.4925 -18.625 2.8125 C-19.285 2.8125 -19.945 2.8125 -20.625 2.8125 Z M-5.625 7.8125 C-10.905 13.0925 -16.185 18.3725 -21.625 23.8125 C-18.64821925 24.12525311 -18.64821925 24.12525311 -16.9074707 22.43554688 C-16.29476318 21.80712891 -15.68205566 21.17871094 -15.05078125 20.53125 C-14.38369141 19.85449219 -13.71660156 19.17773438 -13.02929688 18.48046875 C-11.99385742 17.40732422 -11.99385742 17.40732422 -10.9375 16.3125 C-10.23560547 15.59707031 -9.53371094 14.88164063 -8.81054688 14.14453125 C-7.07513639 12.37370423 -5.3470927 10.59626544 -3.625 8.8125 C-4.285 8.4825 -4.945 8.1525 -5.625 7.8125 Z M-3.625 16.8125 C-3.955 17.4725 -4.285 18.1325 -4.625 18.8125 C-3.965 18.8125 -3.305 18.8125 -2.625 18.8125 C-2.955 18.1525 -3.285 17.4925 -3.625 16.8125 Z M-10.625 22.8125 C-11.285 24.1325 -11.945 25.4525 -12.625 26.8125 C-11.305 25.4925 -9.985 24.1725 -8.625 22.8125 C-9.285 22.8125 -9.945 22.8125 -10.625 22.8125 Z " fill="#D8B234" transform="translate(81.625,19.1875)"/>
<path d="M0 0 C0.19456705 1.95764383 0.38044247 3.91615321 0.5625 5.875 C0.66691406 6.96554688 0.77132813 8.05609375 0.87890625 9.1796875 C1 12 1 12 0 14 C7.92 14 15.84 14 24 14 C24 16.97 24 19.94 24 23 C16.08 23 8.16 23 0 23 C0.12375 25.578125 0.2475 28.15625 0.375 30.8125 C0.40899902 31.62050049 0.44299805 32.42850098 0.47802734 33.26098633 C0.68367265 36.96958079 0.90155637 38.85233456 3 42 C7.62670147 43.04595491 11.83021024 42.42342414 15.875 40 C16.90625 39.34 17.9375 38.68 19 38 C19.99 38 20.98 38 22 38 C22.99 40.31 23.98 42.62 25 45 C19.00658334 50.95487379 13.02793465 54.0184313 4.5 54.375 C-0.90530458 54.148204 -6.42076232 53.19235203 -10.640625 49.60546875 C-14.27093044 45.48486343 -15.13571027 41.99943763 -15.09765625 36.671875 C-15.09443359 35.87265625 -15.09121094 35.0734375 -15.08789062 34.25 C-15.07951172 33.425 -15.07113281 32.6 -15.0625 31.75 C-15.05798828 30.90953125 -15.05347656 30.0690625 -15.04882812 29.203125 C-15.03707961 27.13538599 -15.01914522 25.06768376 -15 23 C-18.63 23 -22.26 23 -26 23 C-26 20.03 -26 17.06 -26 14 C-22.37 14 -18.74 14 -15 14 C-15 10.37 -15 6.74 -15 3 C-14.34 3.33 -13.68 3.66 -13 4 C-13.33 7.63 -13.66 11.26 -14 15 C-18 16 -18 16 -20 15 C-19.67 15.99 -19.34 16.98 -19 18 C-19.66 18.33 -20.32 18.66 -21 19 C-19.15499045 21.21740981 -19.15499045 21.21740981 -16.4375 21.5 C-15.633125 21.665 -14.82875 21.83 -14 22 C-12.05681101 25.88637798 -12.6237456 30.94077475 -12.48242188 35.25976562 C-12.32960795 42.16961577 -12.32960795 42.16961577 -9 48 C-8.34 47.34 -7.68 46.68 -7 46 C-6.34 46.33 -5.68 46.66 -5 47 C-4.525625 46.34 -4.05125 45.68 -3.5625 45 C-3.046875 44.34 -2.53125 43.68 -2 43 C-1.67 43 -1.34 43 -1 43 C-1.16242188 42.33484375 -1.32484375 41.6696875 -1.4921875 40.984375 C-2.1034937 37.39177551 -2.14598917 33.88112581 -2.125 30.25 C-2.13080078 29.22326172 -2.13080078 29.22326172 -2.13671875 28.17578125 C-2.12672061 23.12672061 -2.12672061 23.12672061 -1 22 C0.70772358 21.91286169 2.41898649 21.89299993 4.12890625 21.90234375 C5.68061523 21.90717773 5.68061523 21.90717773 7.26367188 21.91210938 C8.35228516 21.92048828 9.44089844 21.92886719 10.5625 21.9375 C12.2012207 21.94426758 12.2012207 21.94426758 13.87304688 21.95117188 C16.58208495 21.96300174 19.29101599 21.97948457 22 22 C22 19.69 22 17.38 22 15 C14.41 15 6.82 15 -1 15 C-1.78947104 11.0526448 -2.09202608 7.95712151 -2 4 C-2.99 4 -3.98 4 -5 4 C-5 3.34 -5 2.68 -5 2 C-5.99 2.33 -6.98 2.66 -8 3 C-8 2.34 -8 1.68 -8 1 C-2.25 0 -2.25 0 0 0 Z " fill="#EAEAE6" transform="translate(446,8)"/>
<path d="M0 0 C3.75626559 -0.35773958 5.73929307 -0.13556761 9.125 1.625 C12.83049717 4.68606288 15.63512143 7.33638646 16.3125 12.28125 C16.42148957 16.47734859 16.39397906 18.40903142 14 22 C12.02 21.67 10.04 21.34 8 21 C8 21.66 8 22.32 8 23 C8.66 23 9.32 23 10 23 C10 23.66 10 24.32 10 25 C9.01 25 8.02 25 7 25 C6.67 25.66 6.34 26.32 6 27 C4.0625 26.1875 4.0625 26.1875 2 25 C1.67 24.01 1.34 23.02 1 22 C1.99 21.34 2.98 20.68 4 20 C4.72382467 17.94074861 4.72382467 17.94074861 5 16 C3.35 15.67 1.7 15.34 0 15 C0.66 13.02 1.32 11.04 2 9 C0.02 9.99 0.02 9.99 -2 11 C-2.93065133 8.39417629 -3.14917407 7.35801776 -2.0625 4.75 C-1.5365625 3.88375 -1.5365625 3.88375 -1 3 C-0.34 3 0.32 3 1 3 C0.67 2.01 0.34 1.02 0 0 Z " fill="#DAAB0E" transform="translate(75,19)"/>
<path d="M0 0 C6.9239911 0.36442058 13.14293521 4.05511559 17.90625 8.96484375 C23.71483798 16.38218281 25.12729339 23.67634428 24 33 C21.21692458 41.87105289 15.78075193 47.06829123 7.8125 51.4375 C5.41617904 52.68202514 4.44962322 53.08082232 1.76171875 52.59765625 C1.18035156 52.40042969 0.59898438 52.20320313 0 52 C0.55429688 51.82984375 1.10859375 51.6596875 1.6796875 51.484375 C6.11423499 50.10512738 6.11423499 50.10512738 9.5 47.125 C10.07473396 44.68238067 10.13893041 42.50074736 10 40 C7.05270463 38.84188612 7.05270463 38.84188612 4 39 C4.61875 38.360625 5.2375 37.72125 5.875 37.0625 C8.95501308 32.62365763 10.42758211 28.07451898 9.671875 22.640625 C9.19942482 20.73732571 8.60996634 18.86378605 8 17 C10.475 17.99 10.475 17.99 13 19 C12.67 19.99 12.34 20.98 12 22 C11.95615553 23.66608987 11.9603287 25.33380554 12 27 C12.07413975 30.11386969 11.99775073 32.00674781 11 35 C12.175625 34.938125 12.175625 34.938125 13.375 34.875 C16 35 16 35 18 37 C18.99 37 19.98 37 21 37 C22.20192198 26.44787918 22.20192198 26.44787918 21 16 C19.21491214 14.4403555 19.21491214 14.4403555 17 14 C15 13.33333333 13 12.66666667 11 12 C11.66 11.34 12.32 10.68 13 10 C12.34 8.68 11.68 7.36 11 6 C10.34 6 9.68 6 9 6 C8.67 6.66 8.34 7.32 8 8 C7.34 7.67 6.68 7.34 6 7 C6.33 6.34 6.66 5.68 7 5 C6.34 4.67 5.68 4.34 5 4 C5 3.34 5 2.68 5 2 C3.35 1.67 1.7 1.34 0 1 C0 0.67 0 0.34 0 0 Z " fill="#E9E9E5" transform="translate(83,7)"/>
<path d="M0 0 C0 1.66666667 0 3.33333333 0 5 C1.32 5.33 2.64 5.66 4 6 C3.25 10.75 3.25 10.75 1 13 C2.32 14.32 3.64 15.64 5 17 C5.33 16.01 5.66 15.02 6 14 C6.99 14.33 7.98 14.66 9 15 C9 14.34 9 13.68 9 13 C8.34 13 7.68 13 7 13 C7 12.34 7 11.68 7 11 C9.97 11.495 9.97 11.495 13 12 C9.70596957 17.15587372 5.81347168 19.48947716 0 21 C-12.36677868 22.08881421 -12.36677868 22.08881421 -17 19 C-14.36 19 -11.72 19 -9 19 C-8.67 17.68 -8.34 16.36 -8 15 C-7.01 15 -6.02 15 -5 15 C-3.14697958 13.30723357 -3.14697958 13.30723357 -2 11 C-2.21717352 8.79199472 -2.21717352 8.79199472 -3 7 C-4.32 7.33 -5.64 7.66 -7 8 C-6.02133662 6.85373678 -5.04205413 5.70800212 -4.0625 4.5625 C-3.51722656 3.92441406 -2.97195312 3.28632812 -2.41015625 2.62890625 C-1.63204305 1.73008851 -0.84063472 0.84063472 0 0 Z M2 7 C1.67 7.66 1.34 8.32 1 9 C1.66 9 2.32 9 3 9 C2.67 8.34 2.34 7.68 2 7 Z " fill="#D6B33C" transform="translate(76,29)"/>
<path d="M0 0 C2.72426311 2.35277269 3.8141763 4.62496331 5 8 C1.26427061 12.82029598 1.26427061 12.82029598 -2.3359375 13.33203125 C-4.5758033 13.31436669 -6.77120799 13.21850902 -9 13 C-9.33 13.66 -9.66 14.32 -10 15 C-12.5625 15.625 -12.5625 15.625 -15 16 C-15.66 14.35 -16.32 12.7 -17 11 C-14 9 -14 9 -12 9 C-10.1111649 7.73790166 -8.26196581 6.41598246 -6.4375 5.0625 C-5.44621094 4.33160156 -4.45492188 3.60070313 -3.43359375 2.84765625 C-1.17236979 1.21756888 -1.17236979 1.21756888 0 0 Z " fill="#E2E2DD" transform="translate(466,45)"/>
<path d="M0 0 C0.825 0.28875 1.65 0.5775 2.5 0.875 C6.30795181 2.09898451 10.11270827 3.0616882 14 4 C13.01 4.33 12.02 4.66 11 5 C10.67 5.66 10.34 6.32 10 7 C7.525 6.505 7.525 6.505 5 6 C5 6.66 5 7.32 5 8 C5.66 8.66 6.32 9.32 7 10 C6.67 10.66 6.34 11.32 6 12 C8.72923388 12.0270817 11.45819637 12.04687847 14.1875 12.0625 C14.95642578 12.07087891 15.72535156 12.07925781 16.51757812 12.08789062 C19.77480971 12.10187016 22.66914937 12.07266978 25.86328125 11.37109375 C28 11 28 11 31 13 C19.39459568 16.25291838 4.87557294 15.00596225 -6 10 C-8.57647461 8.48417411 -10.69898406 6.92643195 -13 5 C-10 5 -10 5 -7.5 6.0625 C-4.92867545 7.32577972 -4.92867545 7.32577972 -2 6 C-1.34 5.34 -0.68 4.68 0 4 C0 2.68 0 1.36 0 0 Z " fill="#E9E8E4" transform="translate(52,48)"/>
<path d="M0 0 C0.19456705 1.95764383 0.38044247 3.91615321 0.5625 5.875 C0.66691406 6.96554688 0.77132813 8.05609375 0.87890625 9.1796875 C1 12 1 12 0 14 C7.92 14 15.84 14 24 14 C24 16.97 24 19.94 24 23 C16.08 23 8.16 23 0 23 C0.33 28.94 0.66 34.88 1 41 C0.34 40.67 -0.32 40.34 -1 40 C-2.27157458 34.51783413 -2.19985738 28.59600662 -2 23 C-1 22 -1 22 1.22485352 21.88647461 C2.18319092 21.89171143 3.14152832 21.89694824 4.12890625 21.90234375 C5.68061523 21.90717773 5.68061523 21.90717773 7.26367188 21.91210938 C8.35228516 21.92048828 9.44089844 21.92886719 10.5625 21.9375 C12.2012207 21.94426758 12.2012207 21.94426758 13.87304688 21.95117188 C16.58208495 21.96300174 19.29101599 21.97948457 22 22 C22 19.69 22 17.38 22 15 C14.41 15 6.82 15 -1 15 C-1.78947104 11.0526448 -2.09202608 7.95712151 -2 4 C-2.99 4 -3.98 4 -5 4 C-5 3.34 -5 2.68 -5 2 C-5.99 2.33 -6.98 2.66 -8 3 C-8 2.34 -8 1.68 -8 1 C-2.25 0 -2.25 0 0 0 Z " fill="#F1F1EE" transform="translate(446,8)"/>
<path d="M0 0 C-1.8125 1.0625 -1.8125 1.0625 -4 2 C-4.99 1.67 -5.98 1.34 -7 1 C-9.73865287 0.92948886 -12.45027588 0.90642235 -15.1875 0.9375 C-16.31188477 0.94426758 -16.31188477 0.94426758 -17.45898438 0.95117188 C-19.30602383 0.96293646 -21.15302213 0.98087135 -23 1 C-23.33 1.66 -23.66 2.32 -24 3 C-24 2.34 -24 1.68 -24 1 C-24.66 1 -25.32 1 -26 1 C-25.67 2.32 -25.34 3.64 -25 5 C-25.66 5 -26.32 5 -27 5 C-27.66 6.32 -28.32 7.64 -29 9 C-31 8 -31 8 -33.1875 6.6875 C-36.20210295 5.63742115 -36.20210295 5.63742115 -39.5625 7.6875 C-42.1289603 9.34056941 -44.6153476 11.09227808 -47 13 C-44.44030763 6.90924483 -38.96626963 4.32466288 -33.1484375 1.7265625 C-22.88219561 -1.938096 -10.64794647 -2.59860598 0 0 Z " fill="#EDECE9" transform="translate(83,6)"/>
<path d="M0 0 C4.29 0 8.58 0 13 0 C13 0.33 13 0.66 13 1 C9.04 1 5.08 1 1 1 C1 12.88 1 24.76 1 37 C6.445 36.505 6.445 36.505 12 36 C13.18495889 32.44512332 13.07080051 29.25474663 13 25.5625 C12.87300292 17.44262391 12.87300292 17.44262391 14 14 C14.66 14 15.32 14 16 14 C15.67 21.92 15.34 29.84 15 38 C10.05 38 5.1 38 0 38 C0 25.46 0 12.92 0 0 Z " fill="#F3F3F1" transform="translate(111,22)"/>
<path d="M0 0 C5.75 -0.125 5.75 -0.125 8 1 C8 1.66 8 2.32 8 3 C7.01 3 6.02 3 5 3 C5.12375 3.70125 5.2475 4.4025 5.375 5.125 C4.8834108 8.89385052 3.39347581 10.36848571 0.66796875 12.90625 C-1 14 -1 14 -3.875 13.875 C-4.926875 13.441875 -4.926875 13.441875 -6 13 C-5.57847656 12.44570313 -5.15695313 11.89140625 -4.72265625 11.3203125 C-4.17480469 10.59585937 -3.62695312 9.87140625 -3.0625 9.125 C-2.51722656 8.40570313 -1.97195312 7.68640625 -1.41015625 6.9453125 C0.03964624 5.05642921 0.03964624 5.05642921 1 3 C0.34 3 -0.32 3 -1 3 C-0.67 2.01 -0.34 1.02 0 0 Z " fill="#CEA82B" transform="translate(63,18)"/>
<path d="M0 0 C0.66 0 1.32 0 2 0 C2.33 1.65 2.66 3.3 3 5 C4.98 5 6.96 5 9 5 C8.63206382 7.66753731 8.18001672 8.81998328 6.25 10.75 C3.62056017 12.21079991 1.9625559 12.24687966 -1 12 C-2.4783226 9.04335481 -2.06032783 6.25770263 -2 3 C-1.34 3 -0.68 3 0 3 C0 2.01 0 1.02 0 0 Z " fill="#D3AC29" transform="translate(49,28)"/>
<path d="M0 0 C1.2375 -0.01417969 2.475 -0.02835938 3.75 -0.04296875 C7 0.1875 7 0.1875 10 2.1875 C9.01 2.5175 8.02 2.8475 7 3.1875 C6.67 3.8475 6.34 4.5075 6 5.1875 C4.67203709 5.54162344 3.33783393 5.87271554 2 6.1875 C1.01 6.8475 0.02 7.5075 -1 8.1875 C-1 6.8675 -1 5.5475 -1 4.1875 C-0.01 4.1875 0.98 4.1875 2 4.1875 C2 3.5275 2 2.8675 2 2.1875 C-0.64 2.1875 -3.28 2.1875 -6 2.1875 C-6.33 2.8475 -6.66 3.5075 -7 4.1875 C-6.34 4.1875 -5.68 4.1875 -5 4.1875 C-5.33 4.8475 -5.66 5.5075 -6 6.1875 C-6.66 5.8575 -7.32 5.5275 -8 5.1875 C-8 5.8475 -8 6.5075 -8 7.1875 C-8.66 6.8575 -9.32 6.5275 -10 6.1875 C-9.67 5.5275 -9.34 4.8675 -9 4.1875 C-10.32 4.1875 -11.64 4.1875 -13 4.1875 C-13 4.8475 -13 5.5075 -13 6.1875 C-14.32 5.8575 -15.64 5.5275 -17 5.1875 C-10.99329931 1.67414677 -7.11446608 0.03705451 0 0 Z " fill="#CEAB3A" transform="translate(69,16.8125)"/>
<path d="M0 0 C0.66 0.33 1.32 0.66 2 1 C1.67 1.99 1.34 2.98 1 4 C0.938125 4.61875 0.87625 5.2375 0.8125 5.875 C-0.49034185 9.28243254 -3.13557303 10.80597083 -6 13 C-6.33 11.68 -6.66 10.36 -7 9 C-8.65 10.65 -10.3 12.3 -12 14 C-12.66 13.67 -13.32 13.34 -14 13 C-9.51286432 8.4103663 -5.01431776 4.01145421 0 0 Z " fill="#D1BA64" transform="translate(72,24)"/>
<path d="M0 0 C4.29 0 8.58 0 13 0 C13.66 2.64 14.32 5.28 15 8 C14.34 8 13.68 8 13 8 C11.9375 6.1875 11.9375 6.1875 11 4 C11.33 3.01 11.66 2.02 12 1 C8.37 1 4.74 1 1 1 C1 13.54 1 26.08 1 39 C0.67 39 0.34 39 0 39 C0 26.13 0 13.26 0 0 Z " fill="#E9E9E7" transform="translate(297,22)"/>
<path d="M0 0 C0 1.66666667 0 3.33333333 0 5 C1.32 5.33 2.64 5.66 4 6 C3.91433603 8.912575 3.42089045 10.56798024 1.375 12.66796875 C-0.38391375 14.16091772 -2.16313019 15.60436262 -4 17 C-4.66 16.67 -5.32 16.34 -6 16 C-5.319375 15.2575 -4.63875 14.515 -3.9375 13.75 C-1.71646324 11.24050936 -1.71646324 11.24050936 -2.25 8.6875 C-2.4975 8.130625 -2.745 7.57375 -3 7 C-4.32 7.33 -5.64 7.66 -7 8 C-6.02133662 6.85373678 -5.04205413 5.70800212 -4.0625 4.5625 C-3.51722656 3.92441406 -2.97195312 3.28632812 -2.41015625 2.62890625 C-1.63204305 1.73008851 -0.84063472 0.84063472 0 0 Z M2 7 C1.67 7.66 1.34 8.32 1 9 C1.66 9 2.32 9 3 9 C2.67 8.34 2.34 7.68 2 7 Z " fill="#DBC26F" transform="translate(76,29)"/>
<path d="M0 0 C1.4032811 1.16224694 2.72968051 2.41637888 4.03515625 3.6875 C3.37515625 4.0175 2.71515625 4.3475 2.03515625 4.6875 C0.98328125 3.759375 0.98328125 3.759375 -0.08984375 2.8125 C-5.37060989 -1.09067497 -10.48064608 -1.6354048 -16.90234375 -1.5625 C-17.91844727 -1.57410156 -17.91844727 -1.57410156 -18.95507812 -1.5859375 C-23.68439357 -1.56780014 -27.52289825 -0.77191364 -31.96484375 0.6875 C-29.68933545 -2.44132391 -26.88321767 -3.16766766 -23.19921875 -3.9609375 C-15.26620921 -5.2091383 -6.84334654 -4.57130107 0 0 Z " fill="#F2F1EF" transform="translate(348.96484375,24.3125)"/>
<path d="M0 0 C3.2542015 2.83430453 4.5206753 4.68607774 5 9 C-4.41002278 13.59225513 -4.41002278 13.59225513 -9 13 C-6.23776722 10.23776722 -3.79293383 10.42143709 0 10 C0.66 8.35 1.32 6.7 2 5 C-0.97 4.67 -3.94 4.34 -7 4 C-4.68143083 2.45428722 -2.49361571 1.20381448 0 0 Z " fill="#ECECEA" transform="translate(222,47)"/>
<path d="M0 0 C0.66 0.66 1.32 1.32 2 2 C0.88625 1.7525 0.88625 1.7525 -0.25 1.5 C-5.50409401 0.79945413 -10.70751749 0.92292501 -16 1 C-16 1.66 -16 2.32 -16 3 C-16.66 3 -17.32 3 -18 3 C-18.66 2.34 -19.32 1.68 -20 1 C-22.68839385 0.73008094 -25.29141936 0.91262643 -28 1 C-20.4406215 -4.03958567 -8.34028587 -2.91191015 0 0 Z M-20 2 C-19.34 2.66 -18.68 3.32 -18 4 C-18.66 4 -19.32 4 -20 4 C-20 3.34 -20 2.68 -20 2 Z " fill="#F1F1EE" transform="translate(213,22)"/>
<path d="M0 0 C-9.0838136 7.42087289 -20.94004526 6.35008063 -32 6 C-32 5.67 -32 5.34 -32 5 C-30.46279297 4.92652344 -30.46279297 4.92652344 -28.89453125 4.8515625 C-27.5338294 4.77648929 -26.17315356 4.70094345 -24.8125 4.625 C-24.13896484 4.5940625 -23.46542969 4.563125 -22.77148438 4.53125 C-18.77167598 4.29711487 -15.65698631 3.58999405 -12 2 C-9.6875 2.375 -9.6875 2.375 -8 3 C-8 2.34 -8 1.68 -8 1 C-5.29120665 -0.35439668 -2.99066732 -0.06501451 0 0 Z " fill="#EDEDEA" transform="translate(287,56)"/>
<path d="M0 0 C0.99 0.33 1.98 0.66 3 1 C2.2884375 1.680625 2.2884375 1.680625 1.5625 2.375 C-0.09027808 3.93258204 -0.09027808 3.93258204 -1 6 C-2.98 6 -4.96 6 -7 6 C-2.25 1.125 -2.25 1.125 0 0 Z M-5 6 C-3.35 6.33 -1.7 6.66 0 7 C0 7.66 0 8.32 0 9 C-1.64333504 10.03789581 -3.31243867 11.03567924 -5 12 C-5.66 12.66 -6.32 13.32 -7 14 C-7.6875 12.25 -7.6875 12.25 -8 10 C-6.5625 7.75 -6.5625 7.75 -5 6 Z " fill="#EBECE8" transform="translate(134,22)"/>
<path d="M0 0 C2.475 0.99 2.475 0.99 5 2 C4.67 2.99 4.34 3.98 4 5 C3.97066171 7.5482404 4.06542341 10.07858128 4.16015625 12.625 C4 15 4 15 2 18 C2 18.99 2 19.98 2 21 C0.125 22.0625 0.125 22.0625 -2 23 C-2.66 22.67 -3.32 22.34 -4 22 C-3.38125 21.360625 -2.7625 20.72125 -2.125 20.0625 C0.95501308 15.62365763 2.42758211 11.07451898 1.671875 5.640625 C1.19942482 3.73732571 0.60996634 1.86378605 0 0 Z " fill="#ECEDEA" transform="translate(91,24)"/>
<path d="M0 0 C0.6875 1.8125 0.6875 1.8125 1 4 C-0.4375 5.75 -0.4375 5.75 -2 7 C-0.68 7.33 0.64 7.66 2 8 C2 8.66 2 9.32 2 10 C-2.39683488 8.80086322 -5.09840934 7.5711885 -8 4 C-8 3.34 -8 2.68 -8 2 C-6.68 1.67 -5.36 1.34 -4 1 C-4 1.66 -4 2.32 -4 3 C-2.68 2.01 -1.36 1.02 0 0 Z " fill="#D6B64A" transform="translate(57,38)"/>
<path d="M0 0 C5.75 -0.125 5.75 -0.125 8 1 C8 1.66 8 2.32 8 3 C7.01 3 6.02 3 5 3 C5 4.32 5 5.64 5 7 C3.68 6.67 2.36 6.34 1 6 C1 5.01 1 4.02 1 3 C0.34 3 -0.32 3 -1 3 C-0.67 2.01 -0.34 1.02 0 0 Z " fill="#D9A907" transform="translate(63,18)"/>
<path d="M0 0 C0.33 1.65 0.66 3.3 1 5 C-1.475 6.485 -1.475 6.485 -4 8 C-4 6.68 -4 5.36 -4 4 C-5.65 4.66 -7.3 5.32 -9 6 C-4.53846154 0 -4.53846154 0 0 0 Z " fill="#CAAA45" transform="translate(73,36)"/>
<path d="M0 0 C0 3 0 3 -2 6 C-2.39387788 8.32387947 -2.73486085 10.65793749 -3 13 C-3.45375 12.505 -3.9075 12.01 -4.375 11.5 C-5.87635519 9.77390663 -5.87635519 9.77390663 -8 10 C-7.875 7.75 -7.875 7.75 -7 5 C-4 2.75 -4 2.75 -1 1 C-0.67 0.67 -0.34 0.34 0 0 Z " fill="#EDECE8" transform="translate(377,31)"/>
<path d="M0 0 C2.31 0.33 4.62 0.66 7 1 C7 1.66 7 2.32 7 3 C0.75726932 5.4793824 -4.28299653 6.31985731 -11 6 C-7.48375245 4.05841983 -5.0284349 3.81688932 -1 4 C-0.67 2.68 -0.34 1.36 0 0 Z " fill="#EDECE9" transform="translate(457,56)"/>
<path d="M0 0 C0.66 0 1.32 0 2 0 C2.33 1.65 2.66 3.3 3 5 C3.99 5.33 4.98 5.66 6 6 C6 6.99 6 7.98 6 9 C3.69 8.34 1.38 7.68 -1 7 C-1.33 5.68 -1.66 4.36 -2 3 C-1.34 3 -0.68 3 0 3 C0 2.01 0 1.02 0 0 Z " fill="#D9A90A" transform="translate(49,28)"/>
<path d="M0 0 C1.32 0 2.64 0 4 0 C2.54266958 4.61487965 2.54266958 4.61487965 0.0625 6.375 C-2 7 -2 7 -5 6 C-4.67 4.68 -4.34 3.36 -4 2 C-2.68 2 -1.36 2 0 2 C0 1.34 0 0.68 0 0 Z " fill="#D7AC1A" transform="translate(56,21)"/>
<path d="M0 0 C0 0.99 0 1.98 0 3 C0.08839283 5.52632536 0.08839283 5.52632536 1 8 C3.27319229 9.89515826 3.27319229 9.89515826 6.0625 11.3125 C6.98160156 11.82425781 7.90070313 12.33601563 8.84765625 12.86328125 C9.55792969 13.23839844 10.26820313 13.61351562 11 14 C10.01 14.495 10.01 14.495 9 15 C6.9765625 14.109375 6.9765625 14.109375 4.625 12.75 C3.85414063 12.31171875 3.08328125 11.8734375 2.2890625 11.421875 C0.09040362 10.05615515 -1.956442 8.58632356 -4 7 C-2.92598892 4.08482708 -2.22189824 2.22189824 0 0 Z " fill="#F3F3F0" transform="translate(234,44)"/>
<path d="M0 0 C-1.485 1.485 -1.485 1.485 -3 3 C-2.34 3 -1.68 3 -1 3 C-1.33 3.66 -1.66 4.32 -2 5 C-2.66 4.67 -3.32 4.34 -4 4 C-4 4.66 -4 5.32 -4 6 C-4.66 5.67 -5.32 5.34 -6 5 C-5.67 4.34 -5.34 3.68 -5 3 C-6.32 3 -7.64 3 -9 3 C-9 3.66 -9 4.32 -9 5 C-10.32 4.67 -11.64 4.34 -13 4 C-3.92465753 -1.30821918 -3.92465753 -1.30821918 0 0 Z " fill="#DABC59" transform="translate(65,18)"/>
<path d="M0 0 C7.59 0 15.18 0 23 0 C18.45410018 3.40942486 17.0092141 3.40753473 11.5 3.375 C10.1903125 3.38273437 8.880625 3.39046875 7.53125 3.3984375 C4 3 4 3 0 0 Z " fill="#F1F1EE" transform="translate(192,51)"/>
<path d="M0 0 C0.66 0 1.32 0 2 0 C2.02578125 0.58007812 2.0515625 1.16015625 2.078125 1.7578125 C2.47855458 7.27281992 3.49754161 10.54232569 7 15 C7.99 16.485 7.99 16.485 9 18 C4.20166086 15.93012822 1.33713146 12.64191508 -1 8 C-1.20794466 5.00762568 -0.7389754 2.95590159 0 0 Z " fill="#F7F6F0" transform="translate(43,30)"/>
<path d="M0 0 C9.57 0 19.14 0 29 0 C29 0.99 29 1.98 29 3 C19.43 2.67 9.86 2.34 0 2 C0 1.34 0 0.68 0 0 Z " fill="#F6F6F5" transform="translate(184,36)"/>
<path d="M0 0 C0.33 0.66 0.66 1.32 1 2 C2.134375 1.938125 3.26875 1.87625 4.4375 1.8125 C9.33847991 1.78619778 13.473967 3.23987606 18 5 C14.47993959 6.17335347 12.69000646 5.44329492 9.20703125 4.48046875 C5.76217126 3.73052578 2.51453419 3.87448092 -1 4 C-1 3.34 -1 2.68 -1 2 C-1.66 1.67 -2.32 1.34 -3 1 C-2.01 0.67 -1.02 0.34 0 0 Z " fill="#F2F2ED" transform="translate(65,11)"/>
<path d="M0 0 C0 0.99 0 1.98 0 3 C-0.639375 3.28875 -1.27875 3.5775 -1.9375 3.875 C-4.15206079 4.82823451 -4.15206079 4.82823451 -5 7 C-10.94 6.01 -10.94 6.01 -17 5 C-17 4.67 -17 4.34 -17 4 C-16.27554687 3.96261719 -15.55109375 3.92523438 -14.8046875 3.88671875 C-9.13808848 3.50139002 -4.85096382 3.015464 0 0 Z " fill="#EEEEEB" transform="translate(339,47)"/>
<path d="M0 0 C1.95803507 -0.05389087 3.91648909 -0.09274217 5.875 -0.125 C7.51082031 -0.15980469 7.51082031 -0.15980469 9.1796875 -0.1953125 C12 0 12 0 14 2 C13.25234375 2.06058594 12.5046875 2.12117188 11.734375 2.18359375 C10.74953125 2.26738281 9.7646875 2.35117187 8.75 2.4375 C7.77546875 2.51871094 6.8009375 2.59992187 5.796875 2.68359375 C3.43538247 2.95074584 1.28098935 3.35371968 -1 4 C-0.67 2.68 -0.34 1.36 0 0 Z " fill="#EDEDE9" transform="translate(380,28)"/>
<path d="M0 0 C0.66 0.99 1.32 1.98 2 3 C1.34 4.32 0.68 5.64 0 7 C-1.98 7 -3.96 7 -6 7 C-4.77065985 3.31197956 -3.06140622 2.27643027 0 0 Z " fill="#D2A605" transform="translate(75,42)"/>
<path d="M0 0 C0.66 0.66 1.32 1.32 2 2 C2.66 1.67 3.32 1.34 4 1 C6 8.625 6 8.625 6 12 C2.28930302 8.00386479 0.40208382 5.62917348 0 0 Z " fill="#EFEFEE" transform="translate(32,40)"/>
<path d="M0 0 C2.97 0.495 2.97 0.495 6 1 C3.61042731 4.24299151 1.7952131 6.50902342 -2 8 C-2 6.35 -2 4.7 -2 3 C-0.68 3.33 0.64 3.66 2 4 C2 3.34 2 2.68 2 2 C1.34 2 0.68 2 0 2 C0 1.34 0 0.68 0 0 Z " fill="#DDBA49" transform="translate(83,40)"/>
<path d="M0 0 C5.41538462 -0.36923077 5.41538462 -0.36923077 8.375 1.5 C8.91125 1.995 9.4475 2.49 10 3 C8.02 3.66 6.04 4.32 4 5 C2.64567325 3.68799596 1.31266518 2.35368596 0 1 C0 0.67 0 0.34 0 0 Z " fill="#D9B021" transform="translate(75,19)"/>
<path d="M0 0 C1.32 0.66 2.64 1.32 4 2 C0.82469891 4.72168665 -1.94254825 6.85559053 -6 8 C-8.15234375 7.54296875 -8.15234375 7.54296875 -10 7 C-9.44570312 6.82984375 -8.89140625 6.6596875 -8.3203125 6.484375 C-3.74877023 5.09174014 -3.74877023 5.09174014 -0.5 1.8125 C-0.335 1.214375 -0.17 0.61625 0 0 Z " fill="#F0F0ED" transform="translate(93,52)"/>
<path d="M0 0 C0.825 0.28875 1.65 0.5775 2.5 0.875 C6.30795181 2.09898451 10.11270827 3.0616882 14 4 C13.01 4.33 12.02 4.66 11 5 C10.67 5.66 10.34 6.32 10 7 C7.525 6.01 7.525 6.01 5 5 C5 4.34 5 3.68 5 3 C4.360625 2.87625 3.72125 2.7525 3.0625 2.625 C2.381875 2.41875 1.70125 2.2125 1 2 C0.67 1.34 0.34 0.68 0 0 Z " fill="#EFF0EA" transform="translate(52,48)"/>
<path d="M0 0 C0 1.98 0 3.96 0 6 C-1.32 5.67 -2.64 5.34 -4 5 C-4 5.66 -4 6.32 -4 7 C-5.32 7.33 -6.64 7.66 -8 8 C-8 6 -8 6 -6.50390625 4.4921875 C-5.86324219 3.95851562 -5.22257812 3.42484375 -4.5625 2.875 C-3.92441406 2.33617187 -3.28632812 1.79734375 -2.62890625 1.2421875 C-1 0 -1 0 0 0 Z " fill="#CBA11A" transform="translate(66,32)"/>
<path d="M0 0 C-0.804375 0.28875 -1.60875 0.5775 -2.4375 0.875 C-5.1326468 1.73262568 -5.1326468 1.73262568 -6 4 C-7.175625 3.9690625 -7.175625 3.9690625 -8.375 3.9375 C-10.98114961 3.81315937 -10.98114961 3.81315937 -13 5 C-12 2 -12 2 -10.29296875 1.015625 C-9.59816406 0.76296875 -8.90335937 0.5103125 -8.1875 0.25 C-7.15689453 -0.14445312 -7.15689453 -0.14445312 -6.10546875 -0.546875 C-3.71856031 -1.06056958 -2.29362227 -0.76282269 0 0 Z " fill="#EFEFEC" transform="translate(381,22)"/>
<path d="M0 0 C0.66 0.33 1.32 0.66 2 1 C1.67 1.66 1.34 2.32 1 3 C1.99 3 2.98 3 4 3 C4 3.66 4 4.32 4 5 C1.5 6.625 1.5 6.625 -1 8 C-1.93065133 5.39417629 -2.14917407 4.35801776 -1.0625 1.75 C-0.711875 1.1725 -0.36125 0.595 0 0 Z " fill="#D1AB28" transform="translate(74,22)"/>
<path d="M0 0 C3.96 0 7.92 0 12 0 C12.66 2.64 13.32 5.28 14 8 C13.34 8 12.68 8 12 8 C10.9375 6.1875 10.9375 6.1875 10 4 C10.33 3.01 10.66 2.02 11 1 C7.37 1 3.74 1 0 1 C0 0.67 0 0.34 0 0 Z " fill="#F4F4F1" transform="translate(298,22)"/>
<path d="M0 0 C2.475 0.99 2.475 0.99 5 2 C4.67 2.99 4.34 3.98 4 5 C3.96045766 7.33299825 3.95598268 9.66708189 4 12 C3.34 11.67 2.68 11.34 2 11 C1.3671875 8.49609375 1.3671875 8.49609375 0.875 5.4375 C0.70742187 4.42558594 0.53984375 3.41367187 0.3671875 2.37109375 C0.24601562 1.58863281 0.12484375 0.80617188 0 0 Z " fill="#F6F7F1" transform="translate(91,24)"/>
<path d="M0 0 C-0.66 1.65 -1.32 3.3 -2 5 C-6.875 3.25 -6.875 3.25 -8 1 C-5.23735711 0.40267181 -2.83967231 0 0 0 Z " fill="#EEEEEC" transform="translate(287,18)"/>
<path d="M0 0 C0.66 0 1.32 0 2 0 C2.33 1.65 2.66 3.3 3 5 C1.68 5 0.36 5 -1 5 C-0.67 3.35 -0.34 1.7 0 0 Z " fill="#D8B132" transform="translate(71,36)"/>
<path d="M0 0 C3.59391114 1.33488128 6.75490696 2.96022723 10 5 C9.01 5.33 8.02 5.66 7 6 C5.17578125 5.0390625 5.17578125 5.0390625 3.3125 3.625 C2.68988281 3.16351563 2.06726562 2.70203125 1.42578125 2.2265625 C0.95527344 1.82179687 0.48476563 1.41703125 0 1 C0 0.67 0 0.34 0 0 Z " fill="#F0F0ED" transform="translate(39,52)"/>
<path d="M0 0 C0.99 1.32 1.98 2.64 3 4 C1.35 5.98 -0.3 7.96 -2 10 C-2 6.83179542 -1.37202546 5.74405092 0 3 C0 2.01 0 1.02 0 0 Z " fill="#EDEEEA" transform="translate(468,48)"/>
<path d="M0 0 C0 1.65 0 3.3 0 5 C-2.31 4.67 -4.62 4.34 -7 4 C-5.53303752 1.06607504 -3.25996861 0 0 0 Z " fill="#D0A71A" transform="translate(69,40)"/>
<path d="M0 0 C0.99 0 1.98 0 3 0 C2.6875 1.875 2.6875 1.875 2 4 C1.01 4.66 0.02 5.32 -1 6 C-1.33 5.01 -1.66 4.02 -2 3 C-1.34 2.01 -0.68 1.02 0 0 Z " fill="#D3B13D" transform="translate(70,28)"/>
<path d="M0 0 C2.97 0.495 2.97 0.495 6 1 C5.01 1.66 4.02 2.32 3 3 C2.67 3.66 2.34 4.32 2 5 C1.01 4.67 0.02 4.34 -1 4 C-0.67 2.68 -0.34 1.36 0 0 Z " fill="#E0C36C" transform="translate(73,17)"/>
<path d="M0 0 C0.99 0 1.98 0 3 0 C2.67 0.99 2.34 1.98 2 3 C1.34 3 0.68 3 0 3 C0 5.64 0 8.28 0 11 C-0.33 11 -0.66 11 -1 11 C-1.0270043 9.54176788 -1.04639787 8.08339325 -1.0625 6.625 C-1.07410156 5.81289062 -1.08570313 5.00078125 -1.09765625 4.1640625 C-1 2 -1 2 0 0 Z " fill="#ECEBE7" transform="translate(433,10)"/>
</svg>
