<?xml version="1.0" standalone="no"?>
<!DOCTYPE svg PUBLIC "-//W3C//DTD SVG 20010904//EN"
 "http://www.w3.org/TR/2001/REC-SVG-20010904/DTD/svg10.dtd">
<svg version="1.0" xmlns="http://www.w3.org/2000/svg"
 width="80.000000pt" height="80.000000pt" viewBox="0 0 80.000000 80.000000"
 preserveAspectRatio="xMidYMid meet">

<g transform="translate(0.000000,80.000000) scale(0.100000,-0.100000)"
fill="#000000" stroke="none">
<path d="M305 786 c-74 -18 -133 -52 -187 -108 -61 -62 -93 -126 -109 -212
-32 -174 62 -350 231 -430 58 -28 75 -31 160 -31 85 0 102 3 160 31 87 41 162
116 203 201 29 62 32 77 32 163 0 85 -3 102 -31 160 -85 179 -273 272 -459
226z m55 -236 c33 -44 64 -80 68 -80 4 0 40 36 80 80 40 44 80 80 88 80 24 0
15 -12 -68 -104 -43 -46 -78 -87 -78 -91 0 -3 43 -62 95 -131 l94 -124 -72 0
-73 0 -64 86 -64 87 -81 -88 c-56 -61 -86 -86 -99 -84 -15 3 -1 23 68 96 47
50 86 94 86 99 0 4 -38 58 -85 120 -47 63 -85 118 -85 124 0 6 27 10 65 10
l64 0 61 -80z"/>
<path d="M230 591 c0 -4 64 -93 143 -197 120 -160 146 -190 171 -192 22 -3 27
0 23 11 -3 8 -68 99 -143 201 -122 164 -141 186 -166 186 -15 0 -28 -4 -28 -9z"/>
</g>
</svg>
